<svg width="1200" height="1600" viewBox="0 0 1200 1600" fill="none" xmlns="http://www.w3.org/2000/svg">
  <defs>
    <linearGradient id="bg" x1="0" y1="0" x2="1" y2="1">
      <stop offset="0" stop-color="#1D4ED8"/>
      <stop offset="0.5" stop-color="#7C3AED"/>
      <stop offset="1" stop-color="#A855F7"/>
    </linearGradient>
  </defs>
  <rect width="1200" height="1600" fill="url(#bg)"/>
  <path d="M160 940C160 740 320 580 520 580H740C940 580 1100 740 1100 940V1180C1100 1320 980 1440 840 1440H420C280 1440 160 1320 160 1180V940Z" fill="white" fill-opacity="0.13"/>
  <rect x="430" y="770" width="340" height="270" rx="38" fill="white" fill-opacity="0.26"/>
  <path d="M500 770V700C500 612 572 540 660 540C748 540 820 612 820 700V770H760V700C760 645 715 600 660 600C605 600 560 645 560 700V770H500Z" fill="white" fill-opacity="0.26"/>
</svg>
