<svg width="410" height="386" viewBox="0 0 410 386" fill="none" xmlns="http://www.w3.org/2000/svg">
<path fill-rule="evenodd" clip-rule="evenodd" d="M156.71 386H0V242.918C70.3986 266.077 127.467 318.602 156.71 386Z" fill="black"/>
<path fill-rule="evenodd" clip-rule="evenodd" d="M410 386H249.29C279.086 317.33 337.766 264.1 410 241.638V386Z" fill="black"/>
<path d="M410 15.0303V185.937C324.315 202.111 252.229 256.772 212.392 331.271C212.12 331.78 211.849 332.29 211.581 332.8C208.522 338.604 205.659 344.527 203 350.56C200.341 344.527 197.478 338.604 194.419 332.8C194.151 332.29 193.88 331.78 193.608 331.271C154.392 257.934 83.9262 203.821 0 186.722V17.2785C99.657 74.0035 174.135 169.951 202.485 284.147C202.658 284.846 202.83 285.545 203 286.246C203.17 285.545 203.342 284.846 203.515 284.147C232.243 168.428 308.337 71.4479 410 15.0303Z" fill="black"/>
<path d="M255 50.5C255 78.3904 232.39 101 204.5 101C176.61 101 154 78.3904 154 50.5C154 22.6096 176.61 0 204.5 0C232.39 0 255 22.6096 255 50.5Z" fill="black"/>
</svg>
